<svg id="图层_1" data-name="图层 1" xmlns="http://www.w3.org/2000/svg" viewBox="0 0 15 15"><defs><style>.cls-1{fill:#678782;}.cls-2{fill:#658e90;}.cls-3{fill:#90a5aa;}.cls-4{fill:#526c69;}.cls-5{fill:#506664;}.cls-6{fill:#88a29f;}.cls-7{fill:#aebcbf;}.cls-8{fill:#8fa5b0;}.cls-9{fill:#6b8e92;}.cls-10{fill:#6b9291;}.cls-11{fill:#c3c9c9;}.cls-12{fill:#ffffbc;}.cls-13{fill:#bdc8ca;}.cls-14{fill:#48615e;}.cls-15{fill:#546366;}.cls-16{fill:#89a7a7;}.cls-17{fill:#637d7c;}.cls-18{fill:#566b6c;}.cls-19{fill:#5f6e73;}.cls-20{fill:#687c7b;}.cls-21{fill:#5a7471;}.cls-22{fill:#536e69;}.cls-23{fill:#5c7675;}.cls-24{fill:#5c7174;}.cls-25{fill:#63918f;}.cls-26{fill:#81a19e;}.cls-27{fill:#b5c4c9;}.cls-28{fill:#6a8d8f;}.cls-29{fill:#698f92;}.cls-30{fill:#689193;}.cls-31{fill:#718a91;}.cls-32{fill:#89a3a4;}.cls-33{fill:#d0d7e7;}.cls-34{fill:#feffae;}.cls-35{fill:#cad9d6;}.cls-36{fill:#91a6a7;}.cls-37{fill:#c0c9c4;}.cls-38{fill:#c4cdc8;}.cls-39{fill:#d4dad8;}.cls-40{fill:#fcffa3;}.cls-41{fill:#d0d7d0;}.cls-42{fill:#cdd8d4;}.cls-43{fill:#c1cac7;}.cls-44{fill:#8fa2a8;}.cls-45{fill:#8ea8a9;}.cls-46{fill:#b6c8ca;}.cls-47{fill:#fffcb2;}.cls-48{fill:#fefab0;}.cls-49{fill:#e5e47a;}.cls-50{fill:#d2d300;}.cls-51{fill:#fefeb4;}.cls-52{fill:#fbfcae;}.cls-53{fill:#f6f9c4;}.cls-54{fill:#dbe4d3;}.cls-55{fill:#c6d5da;}.cls-56{fill:#bec7cc;}.cls-57{fill:#d9e172;}.cls-58{fill:#bdc8cc;}.cls-59{fill:#bcced2;}.cls-60{fill:#8dabad;}.cls-61{fill:#8da9aa;}.cls-62{fill:#84a2a2;}.cls-63{fill:#bacac9;}.cls-64{fill:#fffead;}.cls-65{fill:#ced7de;}.cls-66{fill:#8fa9a8;}.cls-67{fill:#c2cecc;}.cls-68{fill:#ffffc0;}.cls-69{fill:#87a5a3;}.cls-70{fill:#8fa7a7;}.cls-71{fill:#c4d7d3;}.cls-72{fill:#94aea3;}.cls-73{fill:#8ca4a6;}.cls-74{fill:#d10032;}</style></defs><title>集体宣传组织</title><rect class="cls-1" x="7" y="1" width="1" height="1"/><rect class="cls-2" x="6" y="2" width="1" height="1"/><rect class="cls-3" x="7" y="2" width="1" height="1"/><rect class="cls-4" x="9" y="3" width="1" height="1"/><rect class="cls-5" x="8" y="2" width="1" height="1"/><rect class="cls-6" x="8" y="3" width="1" height="1"/><rect class="cls-7" x="7" y="3" width="1" height="1"/><rect class="cls-8" x="6" y="3" width="1" height="1"/><rect class="cls-9" x="5" y="3" width="1" height="1"/><rect class="cls-10" x="5" y="4" width="1" height="1"/><rect class="cls-11" x="6" y="4" width="1" height="1"/><rect class="cls-12" x="7" y="4" width="1" height="1"/><rect class="cls-13" x="8" y="4" width="1" height="1"/><rect class="cls-14" x="9" y="4" width="1" height="1"/><rect class="cls-15" x="10" y="5" width="1" height="1"/><rect class="cls-16" x="9" y="5" width="1" height="1"/><rect class="cls-17" x="11" y="5" width="1" height="1"/><rect class="cls-18" x="12" y="6" width="1" height="1"/><rect class="cls-19" x="13" y="7" width="1" height="1"/><rect class="cls-20" x="12" y="8" width="1" height="1"/><rect class="cls-21" x="11" y="9" width="1" height="1"/><rect class="cls-22" x="10" y="9" width="1" height="1"/><rect class="cls-23" x="9" y="10" width="1" height="1"/><rect class="cls-5" x="9" y="11" width="1" height="1"/><rect class="cls-24" x="8" y="12" width="1" height="1"/><rect class="cls-5" x="7" y="13" width="1" height="1"/><rect class="cls-24" x="6" y="12" width="1" height="1"/><rect class="cls-23" x="5" y="11" width="1" height="1"/><rect class="cls-24" x="5" y="10" width="1" height="1"/><rect class="cls-23" x="4" y="9" width="1" height="1"/><rect class="cls-24" x="3" y="9" width="1" height="1"/><rect class="cls-25" x="2" y="8" width="1" height="1"/><rect class="cls-26" x="3" y="8" width="1" height="1"/><rect class="cls-27" x="4" y="8" width="1" height="1"/><rect class="cls-28" x="1" y="7" width="1" height="1"/><rect class="cls-29" x="2" y="6" width="1" height="1"/><rect class="cls-30" x="3" y="5" width="1" height="1"/><rect class="cls-31" x="4" y="5" width="1" height="1"/><rect class="cls-32" x="5" y="5" width="1" height="1"/><rect class="cls-33" x="6" y="5" width="1" height="1"/><rect class="cls-34" x="7" y="5" width="1" height="1"/><rect class="cls-35" x="8" y="5" width="1" height="1"/><rect class="cls-36" x="3" y="6" width="1" height="1"/><rect class="cls-37" x="4" y="6" width="1" height="1"/><rect class="cls-38" x="5" y="6" width="1" height="1"/><rect class="cls-39" x="6" y="6" width="1" height="1"/><rect class="cls-40" x="7" y="6" width="1" height="1"/><rect class="cls-41" x="8" y="6" width="1" height="1"/><rect class="cls-42" x="9" y="6" width="1" height="1"/><rect class="cls-43" x="10" y="6" width="1" height="1"/><rect class="cls-44" x="11" y="6" width="1" height="1"/><rect class="cls-45" x="12" y="7" width="1" height="1"/><rect class="cls-46" x="11" y="7" width="1" height="1"/><rect class="cls-47" x="10" y="7" width="1" height="1"/><rect class="cls-48" x="9" y="7" width="1" height="1"/><rect class="cls-49" x="8" y="7" width="1" height="1"/><rect class="cls-50" x="7" y="7" width="1" height="1"/><rect class="cls-51" x="6" y="7" width="1" height="1"/><rect class="cls-52" x="5" y="7" width="1" height="1"/><rect class="cls-53" x="4" y="7" width="1" height="1"/><rect class="cls-54" x="3" y="7" width="1" height="1"/><rect class="cls-44" x="2" y="7" width="1" height="1"/><rect class="cls-55" x="5" y="8" width="1" height="1"/><rect class="cls-56" x="6" y="8" width="1" height="1"/><rect class="cls-57" x="7" y="8" width="1" height="1"/><rect class="cls-58" x="8" y="8" width="1" height="1"/><rect class="cls-59" x="9" y="8" width="1" height="1"/><rect class="cls-60" x="10" y="8" width="1" height="1"/><rect class="cls-61" x="11" y="8" width="1" height="1"/><rect class="cls-62" x="9" y="9" width="1" height="1"/><rect class="cls-63" x="8" y="9" width="1" height="1"/><rect class="cls-64" x="7" y="9" width="1" height="1"/><rect class="cls-65" x="6" y="9" width="1" height="1"/><rect class="cls-66" x="5" y="9" width="1" height="1"/><rect class="cls-67" x="6" y="10" width="1" height="1"/><rect class="cls-68" x="7" y="10" width="1" height="1"/><rect class="cls-69" x="8" y="10" width="1" height="1"/><rect class="cls-70" x="8" y="11" width="1" height="1"/><rect class="cls-71" x="7" y="11" width="1" height="1"/><rect class="cls-72" x="6" y="11" width="1" height="1"/><rect class="cls-73" x="7" y="12" width="1" height="1"/><rect class="cls-74" width="9" height="1"/><rect class="cls-74" y="1" width="1" height="8"/><rect class="cls-33" x="14" y="6" width="1" height="8"/><rect class="cls-33" x="6" y="14" width="9" height="1"/><rect class="cls-33" x="3" y="1" width="1" height="1"/><rect class="cls-33" x="2" y="2" width="1" height="1"/><rect class="cls-33" x="1" y="3" width="1" height="1"/><rect class="cls-74" x="13" y="11" width="1" height="1"/><rect class="cls-74" x="12" y="12" width="1" height="1"/><rect class="cls-74" x="11" y="13" width="1" height="1"/><rect class="cls-50" x="13" width="2" height="1"/><rect class="cls-50" x="14" y="1" width="1" height="1"/><rect class="cls-50" y="13" width="1" height="1"/><rect class="cls-50" y="14" width="2" height="1"/></svg>