<svg xmlns="http://www.w3.org/2000/svg" height="512" width="512"><defs><filter id="shader"><feGaussianBlur result="shadow" in="SourceAlpha" stdDeviation="2.5"/><feGaussianBlur result='blur' in="SourceGraphic" stdDeviation="5"/><feMerge><feMergeNode in='shadow'/><feMergeNode in='blur'/><feMergeNode in="SourceGraphic"/></feMerge></filter></defs><svg filter="url(#shader)"><path fill="#233a7daf" d="M10 185v205h60v-10H30V195h40v-10zm75 0v205h60v-10h-40V195h40v-10zm282 0v10h40v185h-40v10h60V185zm75 0v10h40v185h-40v10h60V185z"/><path fill="#476c3e" d="M240 125l16 8 16-8-16-8z"/><path fill="#47673f" d="M232 129l16 8 16-8-16-8z"/><path fill="#4e7744" d="M224 133l16 8 16-8-16-8z"/><path fill="#385632" d="M216 137l16 8 16-8-16-8z"/><path fill="#4e7644" d="M208 141l16 8 16-8-16-8z"/><path fill="#496f40" d="M200 145l16 8 16-8-16-8z"/><path fill="#3c5c35" d="M192 149l16 8 16-8-16-8z"/><path fill="#45693c" d="M184 153l16 8 16-8-16-8z"/><path fill="#507a46" d="M176 157l16 8 16-8-16-8z"/><path fill="#486e3f" d="M168 161l16 8 16-8-16-8z"/><path fill="#4a7141" d="M160 165l16 8 16-8-16-8z"/><path fill="#3f6137" d="M152 169l16 8 16-8-16-8z"/><path fill="#59884d" d="M144 173l16 8 16-8-16-8z"/><path fill="#3e5f36" d="M136 177l16 8 16-8-16-8z"/><path fill="#4e7744" d="M128 181l16 8 16-8-16-8z"/><path fill="#406238" d="M128 181v1l8 4 8-4v-1l-8-4z"/><path fill="#5e8f51" d="M248 129l16 8 16-8-16-8z"/><path fill="#43673b" d="M240 133l16 8 16-8-16-8z"/><path fill="#44683b" d="M232 137l16 8 16-8-16-8z"/><path fill="#406238" d="M224 141l16 8 16-8-16-8z"/><path fill="#3f6037" d="M216 145l16 8 16-8-16-8z"/><path fill="#496f40" d="M208 149l16 8 16-8-16-8z"/><path fill="#4b7241" d="M200 153l16 8 16-8-16-8z"/><path fill="#416339" d="M192 157l16 8 16-8-16-8z"/><path fill="#4a7141" d="M184 161l16 8 16-8-16-8z"/><path fill="#3e5f37" d="M176 165l16 8 16-8-16-8z"/><path fill="#4c7342" d="M168 169l16 8 16-8-16-8z"/><path fill="#537e48" d="M160 173l16 8 16-8-16-8z"/><path fill="#486e3f" d="M152 177l16 8 16-8-16-8z"/><path fill="#517b46" d="M144 181l16 8 16-8-16-8z"/><path fill="#4d7544" d="M136 185l16 8 16-8-16-8z"/><path fill="#486d3f" d="M136 185v1l8 4 8-4v-1l-8-4z"/><path fill="#466b3e" d="M256 133l16 8 16-8-16-8z"/><path fill="#4d7543" d="M248 137l16 8 16-8-16-8z"/><path fill="#3c5c34" d="M240 141l16 8 16-8-16-8z"/><path fill="#42653a" d="M232 145l16 8 16-8-16-8z"/><path fill="#537e48" d="M224 149l16 8 16-8-16-8z"/><path fill="#395832" d="M216 153l16 8 16-8-16-8z"/><path fill="#4f7845" d="M208 157l16 8 16-8-16-8z"/><path fill="#4b7242" d="M200 161l16 8 16-8-16-8z"/><path fill="#58854b" d="M192 165l16 8 16-8-16-8z"/><path fill="#58864c" d="M184 169l16 8 16-8-16-8z"/><path fill="#486e3f" d="M176 173l16 8 16-8-16-8z"/><path fill="#406238" d="M168 177l16 8 16-8-16-8z"/><path fill="#3e5f36" d="M160 181l16 8 16-8-16-8z"/><path fill="#385632" d="M152 185l16 8 16-8-16-8z"/><path fill="#5c8c50" d="M144 189l16 8 16-8-16-8z"/><path fill="#416439" d="M144 189v1l8 4 8-4v-1l-8-4z"/><path fill="#406238" d="M264 137l16 8 16-8-16-8z"/><path fill="#486e3f" d="M256 141l16 8 16-8-16-8z"/><path fill="#3f6137" d="M248 145l16 8 16-8-16-8z"/><path fill="#486e3f" d="M240 149l16 8 16-8-16-8z"/><path fill="#3f6037" d="M232 153l16 8 16-8-16-8z"/><path fill="#507946" d="M224 157l16 8 16-8-16-8z"/><path fill="#45693c" d="M216 161l16 8 16-8-16-8z"/><path fill="#43663a" d="M208 165l16 8 16-8-16-8z"/><path fill="#527c46" d="M200 169l16 8 16-8-16-8z"/><path fill="#44683b" d="M192 173l16 8 16-8-16-8z"/><path fill="#4f7845" d="M184 177l16 8 16-8-16-8z"/><path fill="#4e7744" d="M176 181l16 8 16-8-16-8z"/><path fill="#42653a" d="M168 185l16 8 16-8-16-8z"/><path fill="#466a3d" d="M160 189l16 8 16-8-16-8z"/><path fill="#3b5a34" d="M152 193l16 8 16-8-16-8z"/><path fill="#426539" d="M152 193v1l8 4 8-4v-1l-8-4z"/><path fill="#406238" d="M272 141l16 8 16-8-16-8z"/><path fill="#496f40" d="M264 145l16 8 16-8-16-8z"/><path fill="#426539" d="M256 149l16 8 16-8-16-8z"/><path fill="#46693d" d="M248 153l16 8 16-8-16-8z"/><path fill="#537d47" d="M240 157l16 8 16-8-16-8z"/><path fill="#3e5f36" d="M232 161l16 8 16-8-16-8z"/><path fill="#466a3d" d="M224 165l16 8 16-8-16-8z"/><path fill="#45693c" d="M216 169l16 8 16-8-16-8z"/><path fill="#537d47" d="M208 173l16 8 16-8-16-8z"/><path fill="#43673b" d="M200 177l16 8 16-8-16-8z"/><path fill="#3e5f37" d="M192 181l16 8 16-8-16-8z"/><path fill="#486e3f" d="M184 185l16 8 16-8-16-8z"/><path fill="#496f40" d="M176 189l16 8 16-8-16-8z"/><path fill="#3c5c34" d="M168 193l16 8 16-8-16-8z"/><path fill="#56834a" d="M160 197l16 8 16-8-16-8z"/><path fill="#4f7845" d="M160 197v1l8 4 8-4v-1l-8-4z"/><path fill="#45693c" d="M280 145l16 8 16-8-16-8z"/><path fill="#3d5e36" d="M272 149l16 8 16-8-16-8z"/><path fill="#416439" d="M264 153l16 8 16-8-16-8z"/><path fill="#496f40" d="M256 157l16 8 16-8-16-8z"/><path fill="#547f48" d="M248 161l16 8 16-8-16-8z"/><path fill="#486d3f" d="M240 165l16 8 16-8-16-8z"/><path fill="#3f6037" d="M232 169l16 8 16-8-16-8z"/><path fill="#3b5b34" d="M224 173l16 8 16-8-16-8z"/><path fill="#3e5f36" d="M216 177l16 8 16-8-16-8z"/><path fill="#496f40" d="M208 181l16 8 16-8-16-8z"/><path fill="#58854b" d="M200 185l16 8 16-8-16-8z"/><path fill="#3f6137" d="M192 189l16 8 16-8-16-8z"/><path fill="#46693d" d="M184 193l16 8 16-8-16-8z"/><path fill="#496f40" d="M176 197l16 8 16-8-16-8z"/><path fill="#527f47" d="M168 201l16 8 16-8-16-8z"/><path fill="#496f40" d="M168 201v1l8 4 8-4v-1l-8-4z"/><path fill="#3f5f35" d="M288 149l16 8 16-8-16-8z"/><path fill="#496f40" d="M280 153l16 8 16-8-16-8z"/><path fill="#45693c" d="M272 157l16 8 16-8-16-8z"/><path fill="#3c5c34" d="M264 161l16 8 16-8-16-8z"/><path fill="#416439" d="M256 165l16 8 16-8-16-8z"/><path fill="#476c3f" d="M248 169l16 8 16-8-16-8z"/><path fill="#42653a" d="M240 173l16 8 16-8-16-8z"/><path fill="#4f7845" d="M232 177l16 8 16-8-16-8z"/><path fill="#537e48" d="M224 181l16 8 16-8-16-8z"/><path fill="#527c46" d="M216 185l16 8 16-8-16-8z"/><path fill="#44683c" d="M208 189l16 8 16-8-16-8z"/><path fill="#466a3d" d="M200 193l16 8 16-8-16-8z"/><path fill="#406238" d="M192 197l16 8 16-8-16-8z"/><path fill="#3e5f36" d="M184 201l16 8 16-8-16-8z"/><path fill="#476c3e" d="M176 205l16 8 16-8-16-8z"/><path fill="#476c3e" d="M176 205v1l8 4 8-4v-1l-8-4z"/><path fill="#43673b" d="M296 153l16 8 16-8-16-8z"/><path fill="#3e5f37" d="M288 157l16 8 16-8-16-8z"/><path fill="#45693c" d="M280 161l16 8 16-8-16-8z"/><path fill="#466a3d" d="M272 165l16 8 16-8-16-8z"/><path fill="#537d47" d="M264 169l16 8 16-8-16-8z"/><path fill="#4a7141" d="M256 173l16 8 16-8-16-8z"/><path fill="#3d5d35" d="M248 177l16 8 16-8-16-8z"/><path fill="#3f6137" d="M240 181l16 8 16-8-16-8z"/><path fill="#4b7241" d="M232 185l16 8 16-8-16-8z"/><path fill="#3d5e36" d="M224 189l16 8 16-8-16-8z"/><path fill="#466b3e" d="M216 193l16 8 16-8-16-8z"/><path fill="#426539" d="M208 197l16 8 16-8-16-8z"/><path fill="#3a5933" d="M200 201l16 8 16-8-16-8z"/><path fill="#5e8f51" d="M192 205l16 8 16-8-16-8z"/><path fill="#466c3e" d="M184 209l16 8 16-8-16-8z"/><path fill="#466c3e" d="M184 209v1l8 4 8-4v-1l-8-4z"/><path fill="#4c7342" d="M304 157l16 8 16-8-16-8z"/><path fill="#3d5d35" d="M296 161l16 8 16-8-16-8z"/><path fill="#476c3e" d="M288 165l16 8 16-8-16-8z"/><path fill="#3d5d35" d="M280 169l16 8 16-8-16-8z"/><path fill="#59884d" d="M272 173l16 8 16-8-16-8z"/><path fill="#416339" d="M264 177l16 8 16-8-16-8z"/><path fill="#3f6137" d="M256 181l16 8 16-8-16-8z"/><path fill="#486e3f" d="M248 185l16 8 16-8-16-8z"/><path fill="#56834a" d="M240 189l16 8 16-8-16-8z"/><path fill="#416339" d="M232 193l16 8 16-8-16-8z"/><path fill="#5c8c50" d="M224 197l16 8 16-8-16-8z"/><path fill="#486e3f" d="M216 201l16 8 16-8-16-8z"/><path fill="#42653a" d="M208 205l16 8 16-8-16-8z"/><path fill="#4a7544" d="M200 209l16 8 16-8-16-8z"/><path fill="#3c5c35" d="M192 213l16 8 16-8-16-8z"/><path fill="#44683c" d="M192 213v1l8 4 8-4v-1l-8-4z"/><path fill="#486d3f" d="M312 161l16 8 16-8-16-8z"/><path fill="#517b46" d="M304 165l16 8 16-8-16-8z"/><path fill="#4c7743" d="M296 169l16 8 16-8-16-8z"/><path fill="#3f6037" d="M288 173l16 8 16-8-16-8z"/><path fill="#385631" d="M280 177l16 8 16-8-16-8z"/><path fill="#476c3f" d="M272 181l16 8 16-8-16-8z"/><path fill="#416339" d="M264 185l16 8 16-8-16-8z"/><path fill="#537e48" d="M256 189l16 8 16-8-16-8z"/><path fill="#527c46" d="M248 193l16 8 16-8-16-8z"/><path fill="#46693d" d="M240 197l16 8 16-8-16-8z"/><path fill="#3a5933" d="M232 201l16 8 16-8-16-8z"/><path fill="#466a3d" d="M224 205l16 8 16-8-16-8z"/><path fill="#46693d" d="M216 209l16 8 16-8-16-8z"/><path fill="#466b3e" d="M208 213l16 8 16-8-16-8z"/><path fill="#476c3f" d="M200 217l16 8 16-8-16-8z"/><path fill="#5c8c4f" d="M200 217v1l8 4 8-4v-1l-8-4z"/><path fill="#42653a" d="M320 165l16 8 16-8-16-8z"/><path fill="#507946" d="M312 169l16 8 16-8-16-8z"/><path fill="#517b46" d="M304 173l16 8 16-8-16-8z"/><path fill="#44683b" d="M296 177l16 8 16-8-16-8z"/><path fill="#3d5e36" d="M288 181l16 8 16-8-16-8z"/><path fill="#416439" d="M280 185l16 8 16-8-16-8z"/><path fill="#57844b" d="M272 189l16 8 16-8-16-8z"/><path fill="#416339" d="M264 193l16 8 16-8-16-8z"/><path fill="#3e5f37" d="M256 197l16 8 16-8-16-8z"/><path fill="#466a3d" d="M248 201l16 8 16-8-16-8z"/><path fill="#507a46" d="M240 205l16 8 16-8-16-8z"/><path fill="#43673b" d="M232 209l16 8 16-8-16-8z"/><path fill="#42653a" d="M224 213l16 8 16-8-16-8z"/><path fill="#517b46" d="M216 217l16 8 16-8-16-8z"/><path fill="#476c3f" d="M208 221l16 8 16-8-16-8z"/><path fill="#3b5b34" d="M208 221v1l8 4 8-4v-1l-8-4z"/><path fill="#416339" d="M328 169l16 8 16-8-16-8z"/><path fill="#466b3e" d="M320 173l16 8 16-8-16-8z"/><path fill="#537e48" d="M312 177l16 8 16-8-16-8z"/><path fill="#486e3f" d="M304 181l16 8 16-8-16-8z"/><path fill="#507a46" d="M296 185l16 8 16-8-16-8z"/><path fill="#3f6037" d="M288 189l16 8 16-8-16-8z"/><path fill="#537d47" d="M280 193l16 8 16-8-16-8z"/><path fill="#3e5f36" d="M272 197l16 8 16-8-16-8z"/><path fill="#466a3d" d="M264 201l16 8 16-8-16-8z"/><path fill="#517b46" d="M256 205l16 8 16-8-16-8z"/><path fill="#3f6037" d="M248 209l16 8 16-8-16-8z"/><path fill="#3b5a34" d="M240 213l16 8 16-8-16-8z"/><path fill="#3c5c34" d="M232 217l16 8 16-8-16-8z"/><path fill="#4a7141" d="M224 221l16 8 16-8-16-8z"/><path fill="#416339" d="M216 225l16 8 16-8-16-8z"/><path fill="#517b46" d="M216 225v1l8 4 8-4v-1l-8-4z"/><path fill="#426539" d="M336 173l16 8 16-8-16-8z"/><path fill="#5e8f51" d="M328 177l16 8 16-8-16-8z"/><path fill="#416339" d="M320 181l16 8 16-8-16-8z"/><path fill="#45693c" d="M312 185l16 8 16-8-16-8z"/><path fill="#527d47" d="M304 189l16 8 16-8-16-8z"/><path fill="#395832" d="M296 193l16 8 16-8-16-8z"/><path fill="#46693d" d="M288 197l16 8 16-8-16-8z"/><path fill="#45693c" d="M280 201l16 8 16-8-16-8z"/><path fill="#406238" d="M272 205l16 8 16-8-16-8z"/><path fill="#44683c" d="M264 209l16 8 16-8-16-8z"/><path fill="#45693c" d="M256 213l16 8 16-8-16-8z"/><path fill="#56834a" d="M248 217l16 8 16-8-16-8z"/><path fill="#4c7443" d="M240 221l16 8 16-8-16-8z"/><path fill="#4d7543" d="M232 225l16 8 16-8-16-8z"/><path fill="#517b46" d="M224 229l16 8 16-8-16-8z"/><path fill="#3f6137" d="M224 229v1l8 4 8-4v-1l-8-4z"/><path fill="#507a46" d="M344 177l16 8 16-8-16-8z"/><path fill="#43673b" d="M336 181l16 8 16-8-16-8z"/><path fill="#395732" d="M328 185l16 8 16-8-16-8z"/><path fill="#43663a" d="M320 189l16 8 16-8-16-8z"/><path fill="#3c5c35" d="M312 193l16 8 16-8-16-8z"/><path fill="#46693d" d="M304 197l16 8 16-8-16-8z"/><path fill="#4d7543" d="M296 201l16 8 16-8-16-8z"/><path fill="#466b3e" d="M288 205l16 8 16-8-16-8z"/><path fill="#56834a" d="M280 209l16 8 16-8-16-8z"/><path fill="#416439" d="M272 213l16 8 16-8-16-8z"/><path fill="#56834a" d="M264 217l16 8 16-8-16-8z"/><path fill="#3d5d35" d="M256 221l16 8 16-8-16-8z"/><path fill="#4f7845" d="M248 225l16 8 16-8-16-8z"/><path fill="#416439" d="M240 229l16 8 16-8-16-8z"/><path fill="#4b7242" d="M232 233l16 8 16-8-16-8z"/><path fill="#45693c" d="M232 233v1l8 4 8-4v-1l-8-4z"/><path fill="#35522f" d="M352 181l16 8 16-8-16-8z"/><path fill="#416339" d="M344 185l16 8 16-8-16-8z"/><path fill="#3d5e36" d="M336 189l16 8 16-8-16-8z"/><path fill="#507a46" d="M328 193l16 8 16-8-16-8z"/><path fill="#416439" d="M320 197l16 8 16-8-16-8z"/><path fill="#44683c" d="M312 201l16 8 16-8-16-8z"/><path fill="#486e3f" d="M304 205l16 8 16-8-16-8z"/><path fill="#3d5d35" d="M296 209l16 8 16-8-16-8z"/><path fill="#4c7342" d="M288 213l16 8 16-8-16-8z"/><path fill="#45693c" d="M280 217l16 8 16-8-16-8z"/><path fill="#486e3f" d="M272 221l16 8 16-8-16-8z"/><path fill="#3c5c34" d="M264 225l16 8 16-8-16-8z"/><path fill="#3a5933" d="M256 229l16 8 16-8-16-8z"/><path fill="#517b46" d="M248 233l16 8 16-8-16-8z"/><path fill="#43663a" d="M240 237l16 8 16-8-16-8z"/><path fill="#416439" d="M240 237v1l8 4 8-4v-1l-8-4z"/><path fill="#44683b" d="M368 181v1l8 4 8-4v-1l-8-4z"/><path fill="#43663a" d="M360 185v1l8 4 8-4v-1l-8-4z"/><path fill="#58854b" d="M352 189v1l8 4 8-4v-1l-8-4z"/><path fill="#3c5c34" d="M344 193v1l8 4 8-4v-1l-8-4z"/><path fill="#44683b" d="M336 197v1l8 4 8-4v-1l-8-4z"/><path fill="#476c3e" d="M328 201v1l8 4 8-4v-1l-8-4z"/><path fill="#45693c" d="M320 205v1l8 4 8-4v-1l-8-4z"/><path fill="#517b46" d="M312 209v1l8 4 8-4v-1l-8-4z"/><path fill="#3c5c35" d="M304 213v1l8 4 8-4v-1l-8-4z"/><path fill="#3e5f36" d="M296 217v1l8 4 8-4v-1l-8-4z"/><path fill="#45693c" d="M288 221v1l8 4 8-4v-1l-8-4z"/><path fill="#42653a" d="M280 225v1l8 4 8-4v-1l-8-4z"/><path fill="#486e3f" d="M272 229v1l8 4 8-4v-1l-8-4z"/><path fill="#547f48" d="M264 233v1l8 4 8-4v-1l-8-4z"/><path fill="#3a5933" d="M256 237v1l8 4 8-4v-1l-8-4z"/><path fill="#4c7342" d="M248 241v1l8 4 8-4v-1l-8-4z"/><path fill="#43663b" d="M128 181v11l16 8v-11z"/><path fill="#43663b" d="M128 191v11l16 8v-11z"/><path fill="#3c5b34" d="M128 201v11l16 8v-11z"/><path fill="#493222" d="M128 211v11l16 8v-11z"/><path fill="#7b583d" d="M128 221v11l16 8v-11z"/><path fill="#634530" d="M128 231v11l16 8v-11z"/><path fill="#976d4c" d="M128 241v11l16 8v-11z"/><path fill="#634530" d="M128 251v11l16 8v-11z"/><path fill="#7b583d" d="M128 261v11l16 8v-11z"/><path fill="#634530" d="M128 271v11l16 8v-11z"/><path fill="#634530" d="M128 281v11l16 8v-11z"/><path fill="#7b583d" d="M128 291v11l16 8v-11z"/><path fill="#634530" d="M128 301v11l16 8v-11z"/><path fill="#634530" d="M128 311v11l16 8v-11z"/><path fill="#7b583d" d="M128 321v11l16 8v-11z"/><path fill="#7b583d" d="M128 331v10l16 8v-10z"/><path fill="#395731" d="M136 185v11l16 8v-11z"/><path fill="#385531" d="M136 195v11l16 8v-11z"/><path fill="#493222" d="M136 205v11l16 8v-11z"/><path fill="#585859" d="M136 215v11l16 8v-11z"/><path fill="#634530" d="M136 225v11l16 8v-11z"/><path fill="#493222" d="M136 235v11l16 8v-11z"/><path fill="#634530" d="M136 245v11l16 8v-11z"/><path fill="#634530" d="M136 255v11l16 8v-11z"/><path fill="#634530" d="M136 265v11l16 8v-11z"/><path fill="#7b583d" d="M136 275v11l16 8v-11z"/><path fill="#7b583d" d="M136 285v11l16 8v-11z"/><path fill="#634530" d="M136 295v11l16 8v-11z"/><path fill="#493222" d="M136 305v11l16 8v-11z"/><path fill="#7b583d" d="M136 315v11l16 8v-11z"/><path fill="#634530" d="M136 325v11l16 8v-11z"/><path fill="#634530" d="M136 335v10l16 8v-10z"/><path fill="#3c5b34" d="M144 189v11l16 8v-11z"/><path fill="#43663b" d="M144 199v11l16 8v-11z"/><path fill="#476c3e" d="M144 209v11l16 8v-11z"/><path fill="#493222" d="M144 219v11l16 8v-11z"/><path fill="#7b583d" d="M144 229v11l16 8v-11z"/><path fill="#7b583d" d="M144 239v11l16 8v-11z"/><path fill="#634530" d="M144 249v11l16 8v-11z"/><path fill="#976d4c" d="M144 259v11l16 8v-11z"/><path fill="#634530" d="M144 269v11l16 8v-11z"/><path fill="#493222" d="M144 279v11l16 8v-11z"/><path fill="#634530" d="M144 289v11l16 8v-11z"/><path fill="#634530" d="M144 299v11l16 8v-11z"/><path fill="#7b583d" d="M144 309v11l16 8v-11z"/><path fill="#634530" d="M144 319v11l16 8v-11z"/><path fill="#493222" d="M144 329v11l16 8v-11z"/><path fill="#976d4c" d="M144 339v10l16 8v-10z"/><path fill="#385531" d="M152 193v11l16 8v-11z"/><path fill="#395731" d="M152 203v11l16 8v-11z"/><path fill="#34502d" d="M152 213v11l16 8v-11z"/><path fill="#493222" d="M152 223v11l16 8v-11z"/><path fill="#976d4c" d="M152 233v11l16 8v-11z"/><path fill="#7b583d" d="M152 243v11l16 8v-11z"/><path fill="#634530" d="M152 253v11l16 8v-11z"/><path fill="#976d4c" d="M152 263v11l16 8v-11z"/><path fill="#7b583d" d="M152 273v11l16 8v-11z"/><path fill="#634530" d="M152 283v11l16 8v-11z"/><path fill="#976d4c" d="M152 293v11l16 8v-11z"/><path fill="#7b583d" d="M152 303v11l16 8v-11z"/><path fill="#634530" d="M152 313v11l16 8v-11z"/><path fill="#634530" d="M152 323v11l16 8v-11z"/><path fill="#976d4c" d="M152 333v11l16 8v-11z"/><path fill="#7b583d" d="M152 343v10l16 8v-10z"/><path fill="#43663b" d="M160 197v11l16 8v-11z"/><path fill="#476c3e" d="M160 207v11l16 8v-11z"/><path fill="#43663b" d="M160 217v11l16 8v-11z"/><path fill="#3a5732" d="M160 227v11l16 8v-11z"/><path fill="#493222" d="M160 237v11l16 8v-11z"/><path fill="#634530" d="M160 247v11l16 8v-11z"/><path fill="#6e6e6f" d="M160 257v11l16 8v-11z"/><path fill="#7b583d" d="M160 267v11l16 8v-11z"/><path fill="#634530" d="M160 277v11l16 8v-11z"/><path fill="#634530" d="M160 287v11l16 8v-11z"/><path fill="#976d4c" d="M160 297v11l16 8v-11z"/><path fill="#7b583d" d="M160 307v11l16 8v-11z"/><path fill="#7b583d" d="M160 317v11l16 8v-11z"/><path fill="#5f4838" d="M160 327v11l16 8v-11z"/><path fill="#634530" d="M160 337v11l16 8v-11z"/><path fill="#7b583d" d="M160 347v10l16 8v-10z"/><path fill="#395731" d="M168 201v11l16 8v-11z"/><path fill="#493222" d="M168 211v11l16 8v-11z"/><path fill="#493222" d="M168 221v11l16 8v-11z"/><path fill="#493222" d="M168 231v11l16 8v-11z"/><path fill="#7b583d" d="M168 241v11l16 8v-11z"/><path fill="#7b583d" d="M168 251v11l16 8v-11z"/><path fill="#634530" d="M168 261v11l16 8v-11z"/><path fill="#7b583d" d="M168 271v11l16 8v-11z"/><path fill="#7b583d" d="M168 281v11l16 8v-11z"/><path fill="#493222" d="M168 291v11l16 8v-11z"/><path fill="#634530" d="M168 301v11l16 8v-11z"/><path fill="#976d4c" d="M168 311v11l16 8v-11z"/><path fill="#7b583d" d="M168 321v11l16 8v-11z"/><path fill="#634530" d="M168 331v11l16 8v-11z"/><path fill="#493222" d="M168 341v11l16 8v-11z"/><path fill="#634530" d="M168 351v10l16 8v-10z"/><path fill="#43663b" d="M176 205v11l16 8v-11z"/><path fill="#43663b" d="M176 215v11l16 8v-11z"/><path fill="#395731" d="M176 225v11l16 8v-11z"/><path fill="#493222" d="M176 235v11l16 8v-11z"/><path fill="#634530" d="M176 245v11l16 8v-11z"/><path fill="#493222" d="M176 255v11l16 8v-11z"/><path fill="#634530" d="M176 265v11l16 8v-11z"/><path fill="#634530" d="M176 275v11l16 8v-11z"/><path fill="#634530" d="M176 285v11l16 8v-11z"/><path fill="#493222" d="M176 295v11l16 8v-11z"/><path fill="#976d4c" d="M176 305v11l16 8v-11z"/><path fill="#634530" d="M176 315v11l16 8v-11z"/><path fill="#976d4c" d="M176 325v11l16 8v-11z"/><path fill="#7b583d" d="M176 335v11l16 8v-11z"/><path fill="#634530" d="M176 345v11l16 8v-11z"/><path fill="#6e6e6f" d="M176 355v10l16 8v-10z"/><path fill="#3c5b34" d="M184 209v11l16 8v-11z"/><path fill="#334e2d" d="M184 219v11l16 8v-11z"/><path fill="#493222" d="M184 229v11l16 8v-11z"/><path fill="#493222" d="M184 239v11l16 8v-11z"/><path fill="#634530" d="M184 249v11l16 8v-11z"/><path fill="#493222" d="M184 259v11l16 8v-11z"/><path fill="#976d4c" d="M184 269v11l16 8v-11z"/><path fill="#634530" d="M184 279v11l16 8v-11z"/><path fill="#493222" d="M184 289v11l16 8v-11z"/><path fill="#634530" d="M184 299v11l16 8v-11z"/><path fill="#7b583d" d="M184 309v11l16 8v-11z"/><path fill="#7b583d" d="M184 319v11l16 8v-11z"/><path fill="#634530" d="M184 329v11l16 8v-11z"/><path fill="#7b583d" d="M184 339v11l16 8v-11z"/><path fill="#493222" d="M184 349v11l16 8v-11z"/><path fill="#634530" d="M184 359v10l16 8v-10z"/><path fill="#3c5b34" d="M192 213v11l16 8v-11z"/><path fill="#476c3e" d="M192 223v11l16 8v-11z"/><path fill="#43663b" d="M192 233v11l16 8v-11z"/><path fill="#334d2c" d="M192 243v11l16 8v-11z"/><path fill="#493222" d="M192 253v11l16 8v-11z"/><path fill="#493222" d="M192 263v11l16 8v-11z"/><path fill="#976d4c" d="M192 273v11l16 8v-11z"/><path fill="#7b583d" d="M192 283v11l16 8v-11z"/><path fill="#634530" d="M192 293v11l16 8v-11z"/><path fill="#634530" d="M192 303v11l16 8v-11z"/><path fill="#493222" d="M192 313v11l16 8v-11z"/><path fill="#585859" d="M192 323v11l16 8v-11z"/><path fill="#634530" d="M192 333v11l16 8v-11z"/><path fill="#634530" d="M192 343v11l16 8v-11z"/><path fill="#976d4c" d="M192 353v11l16 8v-11z"/><path fill="#7b583d" d="M192 363v10l16 8v-10z"/><path fill="#3f6037" d="M200 217v11l16 8v-11z"/><path fill="#3c5b34" d="M200 227v11l16 8v-11z"/><path fill="#3f6037" d="M200 237v11l16 8v-11z"/><path fill="#493222" d="M200 247v11l16 8v-11z"/><path fill="#493222" d="M200 257v11l16 8v-11z"/><path fill="#634530" d="M200 267v11l16 8v-11z"/><path fill="#634530" d="M200 277v11l16 8v-11z"/><path fill="#493222" d="M200 287v11l16 8v-11z"/><path fill="#7b583d" d="M200 297v11l16 8v-11z"/><path fill="#634530" d="M200 307v11l16 8v-11z"/><path fill="#976d4c" d="M200 317v11l16 8v-11z"/><path fill="#7b583d" d="M200 327v11l16 8v-11z"/><path fill="#634530" d="M200 337v11l16 8v-11z"/><path fill="#493222" d="M200 347v11l16 8v-11z"/><path fill="#976d4c" d="M200 357v11l16 8v-11z"/><path fill="#7b583d" d="M200 367v10l16 8v-10z"/><path fill="#43663b" d="M208 221v11l16 8v-11z"/><path fill="#43663b" d="M208 231v11l16 8v-11z"/><path fill="#3c5b34" d="M208 241v11l16 8v-11z"/><path fill="#385631" d="M208 251v11l16 8v-11z"/><path fill="#493222" d="M208 261v11l16 8v-11z"/><path fill="#634530" d="M208 271v11l16 8v-11z"/><path fill="#976d4c" d="M208 281v11l16 8v-11z"/><path fill="#7b583d" d="M208 291v11l16 8v-11z"/><path fill="#634530" d="M208 301v11l16 8v-11z"/><path fill="#976d4c" d="M208 311v11l16 8v-11z"/><path fill="#7b583d" d="M208 321v11l16 8v-11z"/><path fill="#634530" d="M208 331v11l16 8v-11z"/><path fill="#976d4c" d="M208 341v11l16 8v-11z"/><path fill="#634530" d="M208 351v11l16 8v-11z"/><path fill="#634530" d="M208 361v11l16 8v-11z"/><path fill="#634530" d="M208 371v10l16 8v-10z"/><path fill="#3f6037" d="M216 225v11l16 8v-11z"/><path fill="#3a5933" d="M216 235v11l16 8v-11z"/><path fill="#45693c" d="M216 245v11l16 8v-11z"/><path fill="#493222" d="M216 255v11l16 8v-11z"/><path fill="#585859" d="M216 265v11l16 8v-11z"/><path fill="#493222" d="M216 275v11l16 8v-11z"/><path fill="#976d4c" d="M216 285v11l16 8v-11z"/><path fill="#7b583d" d="M216 295v11l16 8v-11z"/><path fill="#634530" d="M216 305v11l16 8v-11z"/><path fill="#634530" d="M216 315v11l16 8v-11z"/><path fill="#493222" d="M216 325v11l16 8v-11z"/><path fill="#634530" d="M216 335v11l16 8v-11z"/><path fill="#634530" d="M216 345v11l16 8v-11z"/><path fill="#493222" d="M216 355v11l16 8v-11z"/><path fill="#7b583d" d="M216 365v11l16 8v-11z"/><path fill="#634530" d="M216 375v10l16 8v-10z"/><path fill="#476c3e" d="M224 229v11l16 8v-11z"/><path fill="#43663b" d="M224 239v11l16 8v-11z"/><path fill="#493222" d="M224 249v11l16 8v-11z"/><path fill="#634530" d="M224 259v11l16 8v-11z"/><path fill="#634530" d="M224 269v11l16 8v-11z"/><path fill="#634530" d="M224 279v11l16 8v-11z"/><path fill="#634530" d="M224 289v11l16 8v-11z"/><path fill="#634530" d="M224 299v11l16 8v-11z"/><path fill="#634530" d="M224 309v11l16 8v-11z"/><path fill="#976d4c" d="M224 319v11l16 8v-11z"/><path fill="#7b583d" d="M224 329v11l16 8v-11z"/><path fill="#493222" d="M224 339v11l16 8v-11z"/><path fill="#634530" d="M224 349v11l16 8v-11z"/><path fill="#634530" d="M224 359v11l16 8v-11z"/><path fill="#634530" d="M224 369v11l16 8v-11z"/><path fill="#7b583d" d="M224 379v10l16 8v-10z"/><path fill="#334e2d" d="M232 233v11l16 8v-11z"/><path fill="#385531" d="M232 243v11l16 8v-11z"/><path fill="#2f4829" d="M232 253v11l16 8v-11z"/><path fill="#493222" d="M232 263v11l16 8v-11z"/><path fill="#7b583d" d="M232 273v11l16 8v-11z"/><path fill="#634530" d="M232 283v11l16 8v-11z"/><path fill="#7b583d" d="M232 293v11l16 8v-11z"/><path fill="#634530" d="M232 303v11l16 8v-11z"/><path fill="#634530" d="M232 313v11l16 8v-11z"/><path fill="#976d4c" d="M232 323v11l16 8v-11z"/><path fill="#7b583d" d="M232 333v11l16 8v-11z"/><path fill="#7b583d" d="M232 343v11l16 8v-11z"/><path fill="#634530" d="M232 353v11l16 8v-11z"/><path fill="#976d4c" d="M232 363v11l16 8v-11z"/><path fill="#634530" d="M232 373v11l16 8v-11z"/><path fill="#7b583d" d="M232 383v10l16 8v-10z"/><path fill="#3f6037" d="M240 237v11l16 8v-11z"/><path fill="#43663b" d="M240 247v11l16 8v-11z"/><path fill="#3c5b34" d="M240 257v11l16 8v-11z"/><path fill="#493222" d="M240 267v11l16 8v-11z"/><path fill="#493222" d="M240 277v11l16 8v-11z"/><path fill="#634530" d="M240 287v11l16 8v-11z"/><path fill="#634530" d="M240 297v11l16 8v-11z"/><path fill="#7b583d" d="M240 307v11l16 8v-11z"/><path fill="#493222" d="M240 317v11l16 8v-11z"/><path fill="#634530" d="M240 327v11l16 8v-11z"/><path fill="#6e6e6f" d="M240 337v11l16 8v-11z"/><path fill="#634530" d="M240 347v11l16 8v-11z"/><path fill="#976d4c" d="M240 357v11l16 8v-11z"/><path fill="#7b583d" d="M240 367v11l16 8v-11z"/><path fill="#7b583d" d="M240 377v11l16 8v-11z"/><path fill="#634530" d="M240 387v10l16 8v-10z"/><path fill="#3c5b34" d="M248 241v11l8 4 8-4v-11l-8 4z"/><path fill="#385430" d="M248 251v11l8 4 8-4v-11l-8 4z"/><path fill="#493222" d="M248 261v11l8 4 8-4v-11l-8 4z"/><path fill="#634530" d="M248 271v11l8 4 8-4v-11l-8 4z"/><path fill="#634530" d="M248 281v11l8 4 8-4v-11l-8 4z"/><path fill="#976d4c" d="M248 291v11l8 4 8-4v-11l-8 4z"/><path fill="#7b583d" d="M248 301v11l8 4 8-4v-11l-8 4z"/><path fill="#7b583d" d="M248 311v11l8 4 8-4v-11l-8 4z"/><path fill="#634530" d="M248 321v11l8 4 8-4v-11l-8 4z"/><path fill="#7b583d" d="M248 331v11l8 4 8-4v-11l-8 4z"/><path fill="#634530" d="M248 341v11l8 4 8-4v-11l-8 4z"/><path fill="#493222" d="M248 351v11l8 4 8-4v-11l-8 4z"/><path fill="#976d4c" d="M248 361v11l8 4 8-4v-11l-8 4z"/><path fill="#7b583d" d="M248 371v11l8 4 8-4v-11l-8 4z"/><path fill="#7b583d" d="M248 381v11l8 4 8-4v-11l-8 4z"/><path fill="#493222" d="M248 391v10l8 4 8-4v-10l-8 4z"/><path fill="#324c2c" d="M256 245v11l16-8v-11z"/><path fill="#324c2c" d="M256 255v11l16-8v-11z"/><path fill="#2d4427" d="M256 265v11l16-8v-11z"/><path fill="#362519" d="M256 275v11l16-8v-11z"/><path fill="#5c422e" d="M256 285v11l16-8v-11z"/><path fill="#4a3424" d="M256 295v11l16-8v-11z"/><path fill="#715139" d="M256 305v11l16-8v-11z"/><path fill="#4a3424" d="M256 315v11l16-8v-11z"/><path fill="#5c422e" d="M256 325v11l16-8v-11z"/><path fill="#4a3424" d="M256 335v11l16-8v-11z"/><path fill="#4a3424" d="M256 345v11l16-8v-11z"/><path fill="#5c422e" d="M256 355v11l16-8v-11z"/><path fill="#4a3424" d="M256 365v11l16-8v-11z"/><path fill="#4a3424" d="M256 375v11l16-8v-11z"/><path fill="#5c422e" d="M256 385v11l16-8v-11z"/><path fill="#5c422e" d="M256 395v10l16-8v-10z"/><path fill="#2b4125" d="M264 241v11l16-8v-11z"/><path fill="#2a4024" d="M264 251v11l16-8v-11z"/><path fill="#362519" d="M264 261v11l16-8v-11z"/><path fill="#424243" d="M264 271v11l16-8v-11z"/><path fill="#4a3424" d="M264 281v11l16-8v-11z"/><path fill="#362519" d="M264 291v11l16-8v-11z"/><path fill="#4a3424" d="M264 301v11l16-8v-11z"/><path fill="#4a3424" d="M264 311v11l16-8v-11z"/><path fill="#4a3424" d="M264 321v11l16-8v-11z"/><path fill="#5c422e" d="M264 331v11l16-8v-11z"/><path fill="#5c422e" d="M264 341v11l16-8v-11z"/><path fill="#4a3424" d="M264 351v11l16-8v-11z"/><path fill="#362519" d="M264 361v11l16-8v-11z"/><path fill="#5c422e" d="M264 371v11l16-8v-11z"/><path fill="#4a3424" d="M264 381v11l16-8v-11z"/><path fill="#4a3424" d="M264 391v10l16-8v-10z"/><path fill="#2d4427" d="M272 237v11l16-8v-11z"/><path fill="#35512e" d="M272 247v11l16-8v-11z"/><path fill="#35512e" d="M272 257v11l16-8v-11z"/><path fill="#362519" d="M272 267v11l16-8v-11z"/><path fill="#5c422e" d="M272 277v11l16-8v-11z"/><path fill="#5c422e" d="M272 287v11l16-8v-11z"/><path fill="#4a3424" d="M272 297v11l16-8v-11z"/><path fill="#715139" d="M272 307v11l16-8v-11z"/><path fill="#4a3424" d="M272 317v11l16-8v-11z"/><path fill="#362519" d="M272 327v11l16-8v-11z"/><path fill="#4a3424" d="M272 337v11l16-8v-11z"/><path fill="#4a3424" d="M272 347v11l16-8v-11z"/><path fill="#5c422e" d="M272 357v11l16-8v-11z"/><path fill="#4a3424" d="M272 367v11l16-8v-11z"/><path fill="#362519" d="M272 377v11l16-8v-11z"/><path fill="#715139" d="M272 387v10l16-8v-10z"/><path fill="#2a4024" d="M280 233v11l16-8v-11z"/><path fill="#2b4125" d="M280 243v11l16-8v-11z"/><path fill="#273c22" d="M280 253v11l16-8v-11z"/><path fill="#362519" d="M280 263v11l16-8v-11z"/><path fill="#715139" d="M280 273v11l16-8v-11z"/><path fill="#5c422e" d="M280 283v11l16-8v-11z"/><path fill="#4a3424" d="M280 293v11l16-8v-11z"/><path fill="#715139" d="M280 303v11l16-8v-11z"/><path fill="#5c422e" d="M280 313v11l16-8v-11z"/><path fill="#4a3424" d="M280 323v11l16-8v-11z"/><path fill="#715139" d="M280 333v11l16-8v-11z"/><path fill="#5c422e" d="M280 343v11l16-8v-11z"/><path fill="#4a3424" d="M280 353v11l16-8v-11z"/><path fill="#4a3424" d="M280 363v11l16-8v-11z"/><path fill="#715139" d="M280 373v11l16-8v-11z"/><path fill="#5c422e" d="M280 383v10l16-8v-10z"/><path fill="#324c2c" d="M288 229v11l16-8v-11z"/><path fill="#35512e" d="M288 239v11l16-8v-11z"/><path fill="#324c2c" d="M288 249v11l16-8v-11z"/><path fill="#2b4126" d="M288 259v11l16-8v-11z"/><path fill="#362519" d="M288 269v11l16-8v-11z"/><path fill="#4a3424" d="M288 279v11l16-8v-11z"/><path fill="#525253" d="M288 289v11l16-8v-11z"/><path fill="#5c422e" d="M288 299v11l16-8v-11z"/><path fill="#4a3424" d="M288 309v11l16-8v-11z"/><path fill="#4a3425" d="M288 319v11l16-8v-11z"/><path fill="#715139" d="M288 329v11l16-8v-11z"/><path fill="#5c422e" d="M288 339v11l16-8v-11z"/><path fill="#5c422e" d="M288 349v11l16-8v-11z"/><path fill="#47362a" d="M288 359v11l16-8v-11z"/><path fill="#4a3424" d="M288 369v11l16-8v-11z"/><path fill="#5c422e" d="M288 379v10l16-8v-10z"/><path fill="#2b4125" d="M296 225v11l16-8v-11z"/><path fill="#362519" d="M296 235v11l16-8v-11z"/><path fill="#362519" d="M296 245v11l16-8v-11z"/><path fill="#362519" d="M296 255v11l16-8v-11z"/><path fill="#5c422e" d="M296 265v11l16-8v-11z"/><path fill="#5c422e" d="M296 275v11l16-8v-11z"/><path fill="#4a3424" d="M296 285v11l16-8v-11z"/><path fill="#5c422e" d="M296 295v11l16-8v-11z"/><path fill="#5c422e" d="M296 305v11l16-8v-11z"/><path fill="#362519" d="M296 315v11l16-8v-11z"/><path fill="#4a3424" d="M296 325v11l16-8v-11z"/><path fill="#715139" d="M296 335v11l16-8v-11z"/><path fill="#5c422e" d="M296 345v11l16-8v-11z"/><path fill="#4a3424" d="M296 355v11l16-8v-11z"/><path fill="#362519" d="M296 365v11l16-8v-11z"/><path fill="#4a3424" d="M296 375v10l16-8v-10z"/><path fill="#324c2c" d="M304 221v11l16-8v-11z"/><path fill="#324c2c" d="M304 231v11l16-8v-11z"/><path fill="#2b4125" d="M304 241v11l16-8v-11z"/><path fill="#362519" d="M304 251v11l16-8v-11z"/><path fill="#4a3424" d="M304 261v11l16-8v-11z"/><path fill="#362519" d="M304 271v11l16-8v-11z"/><path fill="#4a3424" d="M304 281v11l16-8v-11z"/><path fill="#4a3424" d="M304 291v11l16-8v-11z"/><path fill="#4a3424" d="M304 301v11l16-8v-11z"/><path fill="#362519" d="M304 311v11l16-8v-11z"/><path fill="#715139" d="M304 321v11l16-8v-11z"/><path fill="#4a3424" d="M304 331v11l16-8v-11z"/><path fill="#715139" d="M304 341v11l16-8v-11z"/><path fill="#5c422e" d="M304 351v11l16-8v-11z"/><path fill="#4a3424" d="M304 361v11l16-8v-11z"/><path fill="#525253" d="M304 371v10l16-8v-10z"/><path fill="#2d4427" d="M312 217v11l16-8v-11z"/><path fill="#263b22" d="M312 227v11l16-8v-11z"/><path fill="#362519" d="M312 237v11l16-8v-11z"/><path fill="#362519" d="M312 247v11l16-8v-11z"/><path fill="#4a3424" d="M312 257v11l16-8v-11z"/><path fill="#362519" d="M312 267v11l16-8v-11z"/><path fill="#715139" d="M312 277v11l16-8v-11z"/><path fill="#4a3424" d="M312 287v11l16-8v-11z"/><path fill="#362519" d="M312 297v11l16-8v-11z"/><path fill="#4a3424" d="M312 307v11l16-8v-11z"/><path fill="#5c422e" d="M312 317v11l16-8v-11z"/><path fill="#5c422e" d="M312 327v11l16-8v-11z"/><path fill="#4a3424" d="M312 337v11l16-8v-11z"/><path fill="#5c422e" d="M312 347v11l16-8v-11z"/><path fill="#362519" d="M312 357v11l16-8v-11z"/><path fill="#4a3424" d="M312 367v10l16-8v-10z"/><path fill="#2d4427" d="M320 213v11l16-8v-11z"/><path fill="#35512e" d="M320 223v11l16-8v-11z"/><path fill="#324c2c" d="M320 233v11l16-8v-11z"/><path fill="#263921" d="M320 243v11l16-8v-11z"/><path fill="#362519" d="M320 253v11l16-8v-11z"/><path fill="#362519" d="M320 263v11l16-8v-11z"/><path fill="#715139" d="M320 273v11l16-8v-11z"/><path fill="#5c422e" d="M320 283v11l16-8v-11z"/><path fill="#4a3424" d="M320 293v11l16-8v-11z"/><path fill="#4a3424" d="M320 303v11l16-8v-11z"/><path fill="#362519" d="M320 313v11l16-8v-11z"/><path fill="#424243" d="M320 323v11l16-8v-11z"/><path fill="#4a3424" d="M320 333v11l16-8v-11z"/><path fill="#4a3424" d="M320 343v11l16-8v-11z"/><path fill="#715139" d="M320 353v11l16-8v-11z"/><path fill="#5c422e" d="M320 363v10l16-8v-10z"/><path fill="#2f4829" d="M328 209v11l16-8v-11z"/><path fill="#2d4427" d="M328 219v11l16-8v-11z"/><path fill="#2f4829" d="M328 229v11l16-8v-11z"/><path fill="#362519" d="M328 239v11l16-8v-11z"/><path fill="#362519" d="M328 249v11l16-8v-11z"/><path fill="#4a3424" d="M328 259v11l16-8v-11z"/><path fill="#4a3424" d="M328 269v11l16-8v-11z"/><path fill="#362519" d="M328 279v11l16-8v-11z"/><path fill="#5c422e" d="M328 289v11l16-8v-11z"/><path fill="#4a3424" d="M328 299v11l16-8v-11z"/><path fill="#715139" d="M328 309v11l16-8v-11z"/><path fill="#5c422e" d="M328 319v11l16-8v-11z"/><path fill="#4a3424" d="M328 329v11l16-8v-11z"/><path fill="#362519" d="M328 339v11l16-8v-11z"/><path fill="#715139" d="M328 349v11l16-8v-11z"/><path fill="#5c422e" d="M328 359v10l16-8v-10z"/><path fill="#324c2c" d="M336 205v11l16-8v-11z"/><path fill="#324c2c" d="M336 215v11l16-8v-11z"/><path fill="#2d4427" d="M336 225v11l16-8v-11z"/><path fill="#2a4024" d="M336 235v11l16-8v-11z"/><path fill="#362519" d="M336 245v11l16-8v-11z"/><path fill="#4a3424" d="M336 255v11l16-8v-11z"/><path fill="#715139" d="M336 265v11l16-8v-11z"/><path fill="#5c422e" d="M336 275v11l16-8v-11z"/><path fill="#5c422e" d="M336 285v11l16-8v-11z"/><path fill="#4a3424" d="M336 295v11l16-8v-11z"/><path fill="#715139" d="M336 305v11l16-8v-11z"/><path fill="#5c422e" d="M336 315v11l16-8v-11z"/><path fill="#4a3424" d="M336 325v11l16-8v-11z"/><path fill="#715139" d="M336 335v11l16-8v-11z"/><path fill="#4a3424" d="M336 345v11l16-8v-11z"/><path fill="#4a3424" d="M336 355v10l16-8v-10z"/><path fill="#2f4829" d="M344 201v11l16-8v-11z"/><path fill="#2b4326" d="M344 211v11l16-8v-11z"/><path fill="#334e2d" d="M344 221v11l16-8v-11z"/><path fill="#362519" d="M344 231v11l16-8v-11z"/><path fill="#424243" d="M344 241v11l16-8v-11z"/><path fill="#362519" d="M344 251v11l16-8v-11z"/><path fill="#715139" d="M344 261v11l16-8v-11z"/><path fill="#5c422e" d="M344 271v11l16-8v-11z"/><path fill="#4a3424" d="M344 281v11l16-8v-11z"/><path fill="#4a3424" d="M344 291v11l16-8v-11z"/><path fill="#362519" d="M344 301v11l16-8v-11z"/><path fill="#4a3424" d="M344 311v11l16-8v-11z"/><path fill="#4a3424" d="M344 321v11l16-8v-11z"/><path fill="#362519" d="M344 331v11l16-8v-11z"/><path fill="#5c422e" d="M344 341v11l16-8v-11z"/><path fill="#4a3424" d="M344 351v10l16-8v-10z"/><path fill="#35512e" d="M352 197v11l16-8v-11z"/><path fill="#324c2c" d="M352 207v11l16-8v-11z"/><path fill="#362519" d="M352 217v11l16-8v-11z"/><path fill="#4a3424" d="M352 227v11l16-8v-11z"/><path fill="#4a3424" d="M352 237v11l16-8v-11z"/><path fill="#4a3424" d="M352 247v11l16-8v-11z"/><path fill="#4a3424" d="M352 257v11l16-8v-11z"/><path fill="#4a3424" d="M352 267v11l16-8v-11z"/><path fill="#4a3424" d="M352 277v11l16-8v-11z"/><path fill="#715139" d="M352 287v11l16-8v-11z"/><path fill="#5c422e" d="M352 297v11l16-8v-11z"/><path fill="#362519" d="M352 307v11l16-8v-11z"/><path fill="#4a3424" d="M352 317v11l16-8v-11z"/><path fill="#4a3424" d="M352 327v11l16-8v-11z"/><path fill="#4a3424" d="M352 337v11l16-8v-11z"/><path fill="#5c422e" d="M352 347v10l16-8v-10z"/><path fill="#263b21" d="M360 193v11l16-8v-11z"/><path fill="#2a4024" d="M360 203v11l16-8v-11z"/><path fill="#23361f" d="M360 213v11l16-8v-11z"/><path fill="#362519" d="M360 223v11l16-8v-11z"/><path fill="#5c422e" d="M360 233v11l16-8v-11z"/><path fill="#4a3424" d="M360 243v11l16-8v-11z"/><path fill="#5c422e" d="M360 253v11l16-8v-11z"/><path fill="#4a3424" d="M360 263v11l16-8v-11z"/><path fill="#4a3424" d="M360 273v11l16-8v-11z"/><path fill="#715139" d="M360 283v11l16-8v-11z"/><path fill="#5c422e" d="M360 293v11l16-8v-11z"/><path fill="#5c422e" d="M360 303v11l16-8v-11z"/><path fill="#4a3424" d="M360 313v11l16-8v-11z"/><path fill="#715139" d="M360 323v11l16-8v-11z"/><path fill="#4a3424" d="M360 333v11l16-8v-11z"/><path fill="#5c422e" d="M360 343v10l16-8v-10z"/><path fill="#2f4829" d="M368 189v11l16-8v-11z"/><path fill="#324c2c" d="M368 199v11l16-8v-11z"/><path fill="#2d4427" d="M368 209v11l16-8v-11z"/><path fill="#362519" d="M368 219v11l16-8v-11z"/><path fill="#362519" d="M368 229v11l16-8v-11z"/><path fill="#4a3424" d="M368 239v11l16-8v-11z"/><path fill="#4a3424" d="M368 249v11l16-8v-11z"/><path fill="#5c422e" d="M368 259v11l16-8v-11z"/><path fill="#362519" d="M368 269v11l16-8v-11z"/><path fill="#4a3424" d="M368 279v11l16-8v-11z"/><path fill="#525253" d="M368 289v11l16-8v-11z"/><path fill="#4a3424" d="M368 299v11l16-8v-11z"/><path fill="#715139" d="M368 309v11l16-8v-11z"/><path fill="#5c422e" d="M368 319v11l16-8v-11z"/><path fill="#5c422e" d="M368 329v11l16-8v-11z"/><path fill="#4a3424" d="M368 339v10l16-8v-10z"/><path fill="#2d4427" d="M376 185v11l8-4v-11z"/><path fill="#2a3f24" d="M376 195v11l8-4v-11z"/><path fill="#362519" d="M376 205v11l8-4v-11z"/><path fill="#4a3424" d="M376 215v11l8-4v-11z"/><path fill="#4a3424" d="M376 225v11l8-4v-11z"/><path fill="#715139" d="M376 235v11l8-4v-11z"/><path fill="#5c422e" d="M376 245v11l8-4v-11z"/><path fill="#5c422e" d="M376 255v11l8-4v-11z"/><path fill="#4a3424" d="M376 265v11l8-4v-11z"/><path fill="#5c422e" d="M376 275v11l8-4v-11z"/><path fill="#4a3424" d="M376 285v11l8-4v-11z"/><path fill="#362519" d="M376 295v11l8-4v-11z"/><path fill="#715139" d="M376 305v11l8-4v-11z"/><path fill="#5c422e" d="M376 315v11l8-4v-11z"/><path fill="#5c422e" d="M376 325v11l8-4v-11z"/><path fill="#362519" d="M376 335v10l8-4v-10z"/></svg></svg>