<?xml version="1.0" encoding="utf-8"?>
<!-- Generator: Adobe Illustrator 25.0.1, SVG Export Plug-In . SVG Version: 6.00 Build 0)  -->
<svg version="1.1" id="Ebene_1" xmlns="http://www.w3.org/2000/svg" xmlns:xlink="http://www.w3.org/1999/xlink" x="0px" y="0px"
	 viewBox="0 0 507 548.18" style="enable-background:new 0 0 507 548.18;" xml:space="preserve">
<style type="text/css">
	.st0{fill:#FFFFFF;}
	.st1{fill-rule:evenodd;clip-rule:evenodd;fill:#FFFFFF;}
	.st2{fill:#000D26;}
	.st3{fill-rule:evenodd;clip-rule:evenodd;fill:#008FE8;}
	.st4{fill-rule:evenodd;clip-rule:evenodd;fill:#3BB4FF;}
	.st5{fill-rule:evenodd;clip-rule:evenodd;fill:#00619E;}
	.st6{fill-rule:evenodd;clip-rule:evenodd;fill:#000D26;}
	.st7{fill-rule:evenodd;clip-rule:evenodd;fill:#D6EFFF;}
</style>
<g id="XMLID_70_">
	<path class="st0" d="M427.15,298.88l-26.98-63.09l-4.37,88.5L427.15,298.88z M111.2,324.29l-4.37-88.51l-26.98,63.1L111.2,324.29z
		 M209.73,443.64l43.77,23.24l43.77-23.24l21.51-64.68l1.31-3.28l30.22-59.85l45.53-90.16l-12.77-29.86l-2.19-5.13l0.32-5.57
		l3.41-59.9l-38.08,27.7l-9.24,6.72l-11.13-3.06l-72.66-19.96l-72.66,19.96l-11.12,3.06l-9.23-6.72l-38.09-27.7l3.41,59.9l0.32,5.57
		l-2.19,5.13l-12.77,29.86l45.53,90.16l30.22,59.85l1.31,3.28L209.73,443.64z M242.24,515.26l-63.4-33.66l-8.37-4.44l-3.08-9.26
		l-16.58-49.87l-28.16-22.83l-87.04-70.56l-14.03-11.37l7.09-16.58l48.97-114.51L71.68,77.39l-2.87-50.45l40.86,29.72l69.72,50.7
		l67.82-18.63L253.5,87l6.29,1.73l67.83,18.63l69.72-50.7l40.87-29.72l-2.87,50.45l-5.96,104.79l48.97,114.51l7.09,16.58
		l-14.03,11.37l-87.04,70.56l-28.16,22.83l-16.58,49.87l-3.08,9.26l-8.37,4.44l-63.4,33.66l-11.26,5.98L242.24,515.26z"/>
	<polygon id="XMLID_13_" class="st1" points="253.5,494.06 190.1,460.4 165.52,386.47 135.3,326.62 137.76,376.63 50.72,306.08 
		101.88,186.43 95.6,76.08 174.55,133.5 253.5,111.81 332.45,133.5 411.4,76.08 405.12,186.43 456.28,306.08 369.24,376.63 
		371.71,326.62 341.48,386.47 316.9,460.4 	"/>
	<path class="st2" d="M201.32,451.05l52.19,27.7l52.18-27.7l22.83-68.65l0.75-1.88l30.22-59.85l29.07-57.56l-3.18,64.37l-0.96,19.46
		l55.22-44.76l-47.1-110.17l-1.25-2.93l0.18-3.18l4.64-81.52l-55.6,40.44l-5.28,3.84l-6.36-1.75l-75.36-20.7l-75.36,20.7l-6.36,1.75
		l-5.28-3.84l-55.6-40.44l4.64,81.52l0.18,3.18l-1.25,2.93L67.37,302.19l55.22,44.76l-0.96-19.46l-3.18-64.37l29.07,57.56
		l30.22,59.85l0.75,1.88L201.32,451.05z M247.07,506.4l-63.4-33.66l-4.78-2.54l-1.76-5.29l-24.2-72.79l-0.78-1.55l0.8,16.2
		l-23.81-19.3l-87.04-70.56l-8.02-6.5l4.05-9.48l49.9-116.71l-6.1-107.17l-1.64-28.83l23.35,16.98l73.68,53.58l72.59-19.94
		l3.59-0.99l3.59,0.99l72.59,19.94l73.68-53.58l23.35-16.98l-1.64,28.83l-6.1,107.17l49.9,116.71l4.05,9.48l-8.02,6.5l-87.04,70.56
		l-23.81,19.3l0.8-16.2l-0.78,1.55l-24.21,72.79l-1.76,5.29l-4.78,2.54l-63.4,33.66l-6.43,3.42L247.07,506.4z"/>
	<polygon id="XMLID_10_" class="st3" points="253.5,494.28 190.1,460.63 165.52,386.69 135.3,326.84 137.76,376.86 50.72,306.3 
		101.88,186.66 95.6,76.3 174.55,133.72 253.5,112.03 332.45,133.72 411.4,76.3 405.12,186.66 456.28,306.3 369.24,376.86 
		371.71,326.84 341.48,386.69 316.9,460.63 	"/>
	<path id="XMLID_9_" class="st4" d="M253.5,112.03l78.95,21.69L411.4,76.3l-6.28,110.35l51.16,119.64l-87.05,70.56l2.47-50.02
		l-31.57,59.18l-23.24,74.61l-63.4,33.66l-0.93-0.49c0,0-5.32,1.21-0.74-37.63c4.58-38.84-1.47-109.95-3.35-169.9v0l-13.31,12.09
		l12.35-60.55l-28.05,12.1l27.31-49.73l-34.35,5.78l23.96-32.88l-38.68,13.11L239,129.68l-64.45,4.04l78.02-21.43L253.5,112.03z"/>
	<polygon id="XMLID_8_" class="st5" points="190.1,460.63 165.52,386.69 135.3,326.84 137.76,376.86 50.72,306.3 101.88,186.66 
		95.64,77.08 153.51,213.62 114.64,197.87 106.63,247.72 95.97,224.82 90.7,270.82 84.02,253.9 65.09,302.93 101.82,335.21 
		103.16,305.62 123.54,346.62 123.69,284.51 170.34,369.07 173.93,348.21 196.81,455.65 248.27,482.2 245.64,490.11 	"/>
	<polygon id="XMLID_7_" class="st6" points="217.16,291.92 146.34,262.64 162.31,296.43 212.37,311.8 229.3,329.87 	"/>
	<polygon id="XMLID_6_" class="st6" points="288.05,291.92 358.87,262.64 342.9,296.43 292.83,311.8 275.9,329.87 	"/>
	<polygon id="XMLID_5_" class="st6" points="137.59,198.08 101.61,187.35 95.6,76.3 116.13,174.22 	"/>
	<polygon id="XMLID_4_" class="st7" points="316.9,460.63 341.48,386.69 371.71,326.84 369.24,376.86 456.28,306.3 405.12,186.66 
		411.36,77.08 353.49,213.62 392.36,197.87 400.37,247.72 411.03,224.82 416.3,270.82 422.98,253.9 441.91,302.93 403.6,336.78 
		403.05,294.38 385.04,350.21 383.31,284.51 336.66,369.07 333.07,348.21 310.19,455.65 258.73,482.2 261.36,490.11 	"/>
	<polygon id="XMLID_3_" class="st6" points="369.65,198.08 405.63,187.35 411.64,76.3 391.11,174.22 	"/>
	<polygon id="XMLID_2_" class="st6" points="225.24,457.78 253.5,473.48 281.76,457.78 281.76,447.12 281.76,433.34 266.28,426.45 
		253.5,420.76 240.72,426.45 225.24,433.34 225.24,447.12 	"/>
	<rect id="XMLID_1_" x="245.64" y="459.43" class="st6" width="15.72" height="39.79"/>
</g>
</svg>